<?xml version="1.0" encoding="UTF-8" standalone="no"?>
<!-- Created with Inkscape (http://www.inkscape.org/) -->

<svg
   xmlns:dc="http://purl.org/dc/elements/1.1/"
   xmlns:cc="http://creativecommons.org/ns#"
   xmlns:rdf="http://www.w3.org/1999/02/22-rdf-syntax-ns#"
   xmlns:svg="http://www.w3.org/2000/svg"
   xmlns="http://www.w3.org/2000/svg"
   xmlns:sodipodi="http://sodipodi.sourceforge.net/DTD/sodipodi-0.dtd"
   xmlns:inkscape="http://www.inkscape.org/namespaces/inkscape"
   width="210mm"
   height="297mm"
   viewBox="0 0 210 297"
   version="1.1"
   id="svg8"
   inkscape:version="0.92.1 r15371"
   sodipodi:docname="belpre_logo.svg">
  <defs
     id="defs2" />
  <sodipodi:namedview
     id="base"
     pagecolor="#ffffff"
     bordercolor="#666666"
     borderopacity="1.0"
     inkscape:pageopacity="0.0"
     inkscape:pageshadow="2"
     inkscape:zoom="0.24748737"
     inkscape:cx="-561.89034"
     inkscape:cy="824.64144"
     inkscape:document-units="mm"
     inkscape:current-layer="layer1"
     showgrid="false"
     inkscape:window-width="1600"
     inkscape:window-height="838"
     inkscape:window-x="-8"
     inkscape:window-y="-8"
     inkscape:window-maximized="1"
     inkscape:measure-start="0,0"
     inkscape:measure-end="0,0" />
  <metadata
     id="metadata5">
    <rdf:RDF>
      <cc:Work
         rdf:about="">
        <dc:format>image/svg+xml</dc:format>
        <dc:type
           rdf:resource="http://purl.org/dc/dcmitype/StillImage" />
        <dc:title />
      </cc:Work>
    </rdf:RDF>
  </metadata>
  <g
     inkscape:label="Camada 1"
     inkscape:groupmode="layer"
     id="layer1">
    <path
       style="fill:#6fbe44;fill-opacity:1;stroke:none;stroke-width:0.04464286;stroke-opacity:1"
       d=""
       id="path4567"
       inkscape:connector-curvature="0"
       transform="scale(0.26458333)" />
    <g
       id="g906"
       transform="translate(261.92414,20.312484)">
      <g
         inkscape:export-ydpi="96"
         inkscape:export-xdpi="96"
         transform="translate(-177.27083,-22.300595)"
         id="g4638">
        <g
           id="g3748"
           transform="translate(-83.154762,4.1577381)">
          <path
             inkscape:connector-curvature="0"
             id="path3728"
             d="M 34.277317,65.344136 10.289877,50.644312 18.307963,35.810853 34.143682,37.481289 Z"
             style="fill:none;stroke:none;stroke-width:0.26458332px;stroke-linecap:butt;stroke-linejoin:miter;stroke-opacity:1" />
          <path
             inkscape:connector-curvature="0"
             id="path3728-7"
             d="M 41.839823,65.296104 65.827264,50.59628 57.809178,35.762821 41.973459,37.433257 Z"
             style="fill:none;stroke:none;stroke-width:0.26458332px;stroke-linecap:butt;stroke-linejoin:miter;stroke-opacity:1" />
          <path
             inkscape:connector-curvature="0"
             id="path3712"
             d="M 38.059104,15.126294 55.164353,26.618884 37.992286,56.486254 20.820219,26.351614 Z"
             style="fill:none;stroke:none;stroke-width:0.26458332px;stroke-linecap:butt;stroke-linejoin:miter;stroke-opacity:1" />
        </g>
        <path
           style="fill:#6fbe44;fill-opacity:1;stroke:none;stroke-width:0.50507629;stroke-opacity:1"
           d="m -177.50111,215.70169 -6.79806,-11.97394 -0.15783,-23.61232 -0.15784,-23.61231 -1.35739,-0.0284 c -0.74657,-0.0156 -7.10154,-0.64066 -14.12216,-1.38896 l -12.76476,-1.36052 -10.79312,-18.94036 c -8.10615,-14.22511 -10.6495,-19.08497 -10.21621,-19.52123 1.08474,-1.09217 62.82837,-41.087926 63.42967,-41.087926 0.52728,0 31.09593,20.336732 55.17859,36.709256 l 8.42981,5.73097 -10.36386,18.04957 c -5.70012,9.92726 -10.55113,18.24348 -10.78002,18.48049 -0.31311,0.32422 -24.40141,3.2414 -27.58031,3.34008 -0.38316,0.0119 -0.65563,7.15442 -0.89878,23.56036 l -0.34893,23.54331 -6.87189,11.9383 c -3.77954,6.56607 -6.90721,11.98541 -6.95037,12.04296 -0.0432,0.0576 -3.13761,-5.28362 -6.87654,-11.86929 z"
           id="path3750"
           inkscape:connector-curvature="0"
           transform="scale(0.26458333)" />
        <path
           style="fill:#6fbe44;fill-opacity:1;stroke:none;stroke-width:0.25253814;stroke-opacity:1"
           d="m -155.14736,179.44317 c 0.0472,-11.75986 0.16208,-21.4578 0.25526,-21.55097 0.19148,-0.19148 25.76971,-2.93335 25.92411,-2.77895 0.102,0.10201 -25.61,45.00233 -26.03189,45.45895 -0.14285,0.15461 -0.20004,-8.03912 -0.14748,-21.12903 z"
           id="path3752"
           inkscape:connector-curvature="0"
           transform="scale(0.26458333)" />
        <path
           style="fill:#6fbe44;fill-opacity:1;stroke:none;stroke-width:0.25253814;stroke-opacity:1"
           d="m -198.94203,178.35974 c -7.18898,-12.62016 -13.01927,-22.99734 -12.9562,-23.0604 0.14675,-0.14676 25.60278,2.53601 25.91923,2.73158 0.14541,0.0899 0.21201,8.47746 0.17239,21.71051 l -0.0646,21.56406 z"
           id="path3754"
           inkscape:connector-curvature="0"
           transform="scale(0.26458333)" />
        <path
           style="fill:#2785a4;fill-opacity:1;stroke:none;stroke-width:0.1889881;stroke-opacity:1"
           d="m -60.207347,61.956254 c -6.340549,-3.889777 -11.601868,-7.099231 -11.691821,-7.132119 -0.07982,-0.02919 3.728085,-7.305215 6.024984,-11.584596 0.902469,-1.681403 1.571675,-2.900193 1.680154,-3.035043 0.04132,-0.05136 8.087902,0.847719 8.150923,0.91074 0.03795,0.03795 1.732608,2.993766 3.765905,6.568477 l 3.696901,6.499477 -0.04938,7.422692 -0.04939,7.422695 z"
           id="path3756"
           inkscape:connector-curvature="0"
           sodipodi:nodetypes="scscsscccs" />
        <path
           style="fill:#2785a4;fill-opacity:1;stroke:none;stroke-width:0.1889881;stroke-opacity:1"
           d="m -41.641932,67.071208 c 0.06903,-1.128207 0.125764,-4.568129 0.126077,-7.644278 l 5.29e-4,-5.592998 3.567583,-6.204535 c 1.962171,-3.412492 3.663934,-6.300885 3.781695,-6.418643 0.242819,-0.242822 7.983393,-1.114018 8.179412,-0.920589 0.214724,0.211886 7.716095,14.148477 7.709957,14.324116 -0.0043,0.123859 -17.187894,10.749084 -22.714944,14.045477 l -0.775856,0.46273 z"
           id="path3758"
           inkscape:connector-curvature="0" />
        <rect
           style="fill:#6fbe44;fill-opacity:1;stroke:none;stroke-width:0.26458332;stroke-opacity:1"
           id="rect4592"
           width="14.079613"
           height="6.6618304"
           x="-53.200146"
           y="39.007622" />
        <rect
           style="fill:#6fbe44;fill-opacity:1;stroke:none;stroke-width:0.26458332;stroke-opacity:1"
           id="rect4598"
           width="1.2756697"
           height="7.7721353"
           x="-49.255024"
           y="45.291477" />
        <rect
           style="fill:#6fbe44;fill-opacity:1;stroke:none;stroke-width:0.26458332;stroke-opacity:1"
           id="rect4600"
           width="0.8504464"
           height="7.6540179"
           x="-41.789993"
           y="45.267857" />
        <rect
           style="fill:#6fbe44;fill-opacity:1;stroke:none;stroke-width:0.50255871;stroke-opacity:1"
           id="rect4605"
           width="3.9333148"
           height="0.90950519"
           x="-50.268223"
           y="47.079063"
           transform="rotate(7.3829728)" />
        <rect
           style="fill:#6fbe44;fill-opacity:1;stroke:none;stroke-width:0.2706275;stroke-opacity:1"
           id="rect4607"
           width="5.1159854"
           height="1.6134056"
           x="-44.865517"
           y="34.632671"
           transform="matrix(0.99131955,-0.13147454,0.14363929,0.98963011,0,0)" />
        <path
           style="fill:#6fbe44;fill-opacity:1;stroke:none;stroke-width:0.26458332px;stroke-linecap:butt;stroke-linejoin:miter;stroke-opacity:1"
           d="m -56.318983,40.673136 0.253008,0.419264 0.05463,0.0016 0.05463,-0.403076 z"
           id="path4609"
           inkscape:connector-curvature="0" />
        <path
           style="fill:#6fbe44;fill-opacity:1;stroke:none;stroke-width:0.26698866px;stroke-linecap:butt;stroke-linejoin:miter;stroke-opacity:1"
           d="m -34.123547,41.039314 0.274279,-0.534541 -0.465634,0.07935 0.08717,0.482338 z"
           id="path4611"
           inkscape:connector-curvature="0" />
        <path
           style="fill:#6fbe44;fill-opacity:1;stroke:none;stroke-width:0.26458332px;stroke-linecap:butt;stroke-linejoin:miter;stroke-opacity:1"
           d="m -49.178424,53.262077 0.415936,0.64089 -0.0038,-0.842791 -0.413433,-0.01042 z"
           id="path4613"
           inkscape:connector-curvature="0" />
        <path
           style="fill:#6fbe44;fill-opacity:1;stroke:none;stroke-width:0.26458332px;stroke-linecap:butt;stroke-linejoin:miter;stroke-opacity:1"
           d="m -41.487277,53.866457 0.488672,-0.820561 -0.01181,-0.215564 c 0,0 -0.705752,0.02363 -0.685083,0.02363 0.02066,0 0.0945,0.989234 0.0945,0.989234 z"
           id="path4615"
           inkscape:connector-curvature="0" />
        <rect
           style="fill:#6fbe44;fill-opacity:1;stroke:none;stroke-width:0.26222482;stroke-opacity:1"
           id="rect4617"
           width="0.44734854"
           height="0.30571425"
           x="-12.486687"
           y="71.221954"
           transform="matrix(0.33794619,0.94116543,-0.80666931,0.59100306,0,0)" />
      </g>
      <text
         id="text4642"
         y="38.914978"
         x="-187.98099"
         style="font-style:normal;font-weight:normal;font-size:10.58333302px;line-height:1.25;font-family:sans-serif;letter-spacing:0px;word-spacing:0px;fill:#2785a4;fill-opacity:1;stroke:none;stroke-width:0.26458332"
         xml:space="preserve"><tspan
           style="font-style:normal;font-variant:normal;font-weight:normal;font-stretch:normal;font-size:45.86111069px;font-family:Amaranth;-inkscape-font-specification:'Amaranth, Normal';font-variant-ligatures:normal;font-variant-caps:normal;font-variant-numeric:normal;font-feature-settings:normal;text-align:start;writing-mode:lr-tb;text-anchor:start;fill:#2785a4;fill-opacity:1;stroke-width:0.26458332"
           y="38.914978"
           x="-187.98099"
           id="tspan4640"
           sodipodi:role="line">Belpre</tspan></text>
    </g>
  </g>
</svg>
